<?xml version="1.0" encoding="UTF-8" standalone="no"?>
<!DOCTYPE svg PUBLIC "-//W3C//DTD SVG 1.1//EN" "http://www.w3.org/Graphics/SVG/1.1/DTD/svg11.dtd">
<svg width="100%" height="100%" viewBox="0 0 600 330" version="1.1" xmlns="http://www.w3.org/2000/svg" xmlns:xlink="http://www.w3.org/1999/xlink" xml:space="preserve" xmlns:serif="http://www.serif.com/" style="fill-rule:evenodd;clip-rule:evenodd;stroke-linejoin:round;stroke-miterlimit:2;">
    <g id="logo_pisco_light" transform="matrix(0.75,0,0,0.55,0,0)">
        <rect x="0" y="0" width="800" height="600" style="fill:none;"/>
        <clipPath id="_clip1">
            <rect x="0" y="0" width="800" height="600"/>
        </clipPath>
        <g clip-path="url(#_clip1)">
            <g transform="matrix(-0.00424011,-1.78014,-1.30544,0.00578197,1320.11,1840.23)">
                <path d="M927.778,502.058C841.374,337.453 699.187,765.101 699.408,833.292C708.861,779.782 887.126,324.424 927.778,585.493L928.049,585.456L927.778,502.058Z" style="fill:rgb(0,174,239);fill-rule:nonzero;"/>
            </g>
            <g transform="matrix(1.30544,0,0,1.78015,-500.641,-1302.11)">
                <path d="M742.219,828.491C790.803,707.988 931.234,704.089 923.19,792.644L996.37,814.371L891.766,814.764C919.33,751.818 814.366,732.749 770.484,828.491L742.219,828.491Z" style="fill:rgb(0,174,239);fill-rule:nonzero;"/>
            </g>
            <g transform="matrix(1.30107,0,0,1.77419,-497.401,-781.168)">
                <path d="M401.708,605.351C401.708,601.782 402.389,598.432 403.75,595.3C405.092,592.211 407.083,589.392 409.722,586.838C412.324,584.304 415.193,582.393 418.324,581.108C421.485,579.81 424.853,579.161 428.423,579.161C432.008,579.161 435.384,579.81 438.557,581.107C441.713,582.397 444.596,584.308 447.21,586.838C449.843,589.403 451.834,592.241 453.181,595.344C454.544,598.482 455.225,601.82 455.225,605.351C455.225,607.708 454.912,609.975 454.285,612.151L454.27,612.151C453.639,614.341 452.7,616.417 451.453,618.374L451.464,618.381C450.239,620.31 448.804,622.065 447.15,623.641C445.518,625.197 443.681,626.56 441.633,627.727L441.602,627.742C439.532,628.897 437.409,629.763 435.222,630.34C432.998,630.927 430.735,631.222 428.423,631.222C426.109,631.222 423.846,630.927 421.634,630.34C419.42,629.752 417.302,628.881 415.284,627.727L415.288,627.721C413.244,626.554 411.401,625.191 409.765,623.635C408.154,622.102 406.732,620.359 405.505,618.407L405.499,618.411C404.245,616.479 403.299,614.406 402.663,612.195L402.648,612.195C402.021,610.019 401.708,607.738 401.708,605.351ZM382.316,678.965L401.708,679.028L401.708,640.974L407.185,643.345L409.137,644.19L409.183,644.206L411.041,645.037C413.801,646.02 416.637,646.768 419.547,647.279C422.461,647.792 425.42,648.049 428.423,648.049C431.47,648.049 434.46,647.792 437.385,647.279C440.345,646.76 443.228,645.991 446.029,644.972L446.03,644.975C448.793,643.945 451.422,642.675 453.909,641.162C456.404,639.644 458.726,637.907 460.869,635.949L460.869,635.934C463.045,633.961 464.969,631.837 466.642,629.567C468.321,627.288 469.762,624.846 470.964,622.243L470.979,622.228C472.18,619.655 473.088,616.951 473.703,614.118C474.312,611.313 474.617,608.389 474.617,605.351C474.617,599.168 473.427,593.514 471.051,588.416L471.051,588.401C469.848,585.807 468.404,583.37 466.723,581.093C465.012,578.777 463.065,576.619 460.885,574.622L460.885,574.623C458.664,572.616 456.293,570.844 453.781,569.316C451.314,567.815 448.727,566.568 446.029,565.585L445.937,565.554C443.167,564.473 440.333,563.665 437.442,563.132C434.56,562.6 431.551,562.333 428.423,562.333C424.362,562.333 420.44,562.803 416.657,563.745C412.862,564.689 409.165,566.114 405.566,568.022L405.551,568.037C401.964,569.905 398.771,572.111 395.976,574.646C393.171,577.189 390.709,580.11 388.593,583.398L388.578,583.429C386.51,586.584 384.956,589.93 383.918,593.46C382.868,597.032 382.329,600.804 382.301,604.769L382.316,604.769L382.316,678.965ZM507.137,645.572L507.137,565.915L487.746,565.978L487.746,645.572L507.137,645.572ZM536.761,631.533C534.292,630.521 531.982,629.197 529.835,627.564L520.962,639.276C521.732,639.8 522.5,640.301 523.263,640.78C525.017,641.881 526.736,642.85 528.418,643.684L528.448,643.699C530.025,644.494 531.651,645.173 533.325,645.736C535.01,646.301 536.768,646.759 538.595,647.105L538.626,647.105C540.562,647.49 542.547,647.775 544.566,647.954C546.561,648.132 548.792,648.224 551.25,648.224C554.001,648.224 556.656,647.963 559.213,647.442C561.823,646.91 564.383,646.112 566.895,645.049L566.94,645.018C569.396,644.023 571.574,642.796 573.477,641.333L573.492,641.333C575.364,639.894 577.023,638.178 578.468,636.183L578.498,636.152C579.89,634.272 580.93,632.203 581.623,629.95C582.322,627.674 582.67,625.165 582.67,622.428C582.67,618.658 582.257,615.447 581.43,612.797C580.667,610.352 579.555,608.386 578.094,606.903C576.472,605.256 574.652,603.869 572.635,602.746C570.615,601.621 568.376,600.748 565.922,600.134L565.921,600.138C563.349,599.539 560.771,598.914 558.189,598.265C555.604,597.615 553.04,596.947 550.499,596.26L550.484,596.26C547.554,595.463 545.27,594.287 543.632,592.727C541.663,590.851 540.678,588.572 540.678,585.886C540.678,582.624 542.125,580.188 545.024,578.571C547.177,577.369 550.135,576.771 553.901,576.771C556.926,576.771 559.843,577.251 562.649,578.214C564.401,578.814 566.104,579.605 567.757,580.584L577.441,570.975C577.251,570.835 577.059,570.695 576.867,570.558C575.526,569.6 574.072,568.684 572.5,567.817L572.424,567.77C571.034,566.963 569.544,566.226 567.957,565.552C566.347,564.869 564.652,564.255 562.871,563.705C561.277,563.269 559.696,562.945 558.13,562.732C556.595,562.523 555.018,562.421 553.406,562.421C550.525,562.421 547.8,562.658 545.239,563.132C542.699,563.602 540.247,564.318 537.89,565.276C535.666,566.183 533.665,567.321 531.894,568.688C530.133,570.046 528.569,571.649 527.205,573.498L527.208,573.5C525.895,575.313 524.915,577.319 524.265,579.523C523.599,581.784 523.269,584.302 523.269,587.08C523.269,590.772 523.681,593.933 524.508,596.558C525.27,598.976 526.387,600.939 527.86,602.446C529.555,604.192 531.426,605.655 533.47,606.834C535.531,608.023 537.808,608.947 540.299,609.605L540.298,609.609C543.138,610.345 545.98,611.075 549.268,611.902C551.945,612.577 553.995,613.079 555.373,613.392L555.511,613.422C558.319,614.17 560.502,615.191 562.059,616.478C564.134,618.193 565.172,620.297 565.172,622.777C565.172,626.652 563.511,629.57 560.178,631.528C557.52,633.092 553.807,633.874 549.035,633.874C544.653,633.874 540.557,633.093 536.759,631.538L536.761,631.533ZM656.251,582.175C656.607,582.379 656.961,582.592 657.313,582.815L666.839,569.84C665.788,569.148 664.701,568.499 663.576,567.894C661.284,566.661 658.87,565.618 656.326,564.771C653.795,563.926 651.211,563.294 648.584,562.871C645.995,562.453 643.319,562.246 640.565,562.246C637.227,562.246 634.011,562.518 630.925,563.06C627.831,563.603 624.869,564.411 622.043,565.482L622.042,565.479C619.213,566.575 616.58,567.878 614.147,569.388C611.736,570.885 609.546,572.575 607.583,574.459L607.583,574.459C605.598,576.392 603.826,578.521 602.27,580.839C600.71,583.161 599.344,585.72 598.173,588.511L598.168,588.509C597.049,591.189 596.209,594.027 595.65,597.017C595.089,600.019 594.808,603.227 594.808,606.634C594.808,610.251 595.265,613.748 596.182,617.123C597.099,620.504 598.483,623.78 600.332,626.947L600.328,626.95C602.171,630.05 604.413,632.86 607.054,635.367C609.709,637.89 612.776,640.119 616.252,642.047L616.255,642.041C619.706,643.946 623.446,645.377 627.47,646.334C631.54,647.304 635.907,647.786 640.565,647.786C642.226,647.786 643.925,647.687 645.665,647.493C647.529,647.285 649.416,646.986 651.323,646.6L651.322,646.597C653.217,646.21 655.125,645.705 657.04,645.083C658.917,644.474 660.779,643.754 662.617,642.923C664.354,642.133 665.882,641.295 667.191,640.417C667.428,640.258 667.659,640.098 667.883,639.935L657.645,626.962C655.803,628.193 653.845,629.197 651.77,629.969C648.439,631.209 644.877,631.833 641.09,631.833C638.476,631.833 635.985,631.505 633.614,630.846C631.246,630.187 629.036,629.198 626.979,627.876C624.885,626.608 623.047,625.123 621.465,623.418C619.86,621.688 618.513,619.732 617.426,617.548C616.355,615.422 615.548,613.141 615.007,610.712C614.469,608.295 614.2,605.798 614.2,603.224C614.2,599.711 614.859,596.442 616.177,593.42C617.489,590.408 619.436,587.707 622.014,585.319L622.029,585.319C624.586,582.951 627.41,581.168 630.507,579.982C633.604,578.797 636.954,578.199 640.565,578.199C642.392,578.199 644.232,578.35 646.074,578.648C647.92,578.946 649.692,579.385 651.381,579.958L651.412,579.974C653.121,580.572 654.735,581.307 656.251,582.175ZM715.828,646.802C719.614,647.747 723.53,648.224 727.578,648.224C730.707,648.224 733.716,647.957 736.598,647.425C739.489,646.891 742.323,646.083 745.093,645.003L745.139,644.987C747.875,643.95 750.49,642.675 752.979,641.161C755.445,639.66 757.807,637.908 760.056,635.903L760.057,635.905C762.242,633.888 764.178,631.731 765.863,629.436C767.557,627.129 769.005,624.673 770.207,622.068L770.207,622.053C772.584,616.956 773.772,611.3 773.772,605.089C773.772,602.034 773.467,599.096 772.858,596.279C772.244,593.435 771.335,590.725 770.134,588.154L770.119,588.123C768.929,585.531 767.487,583.086 765.798,580.782C764.124,578.5 762.205,576.368 760.041,574.375L760.04,574.376C757.832,572.383 755.482,570.633 752.995,569.134C750.495,567.626 747.894,566.382 745.2,565.41L745.169,565.41C742.274,564.34 739.376,563.543 736.482,563.022C733.607,562.505 730.637,562.246 727.578,562.246C724.537,562.246 721.582,562.505 718.718,563.022C715.835,563.543 712.943,564.339 710.045,565.41L710.044,565.407C707.283,566.449 704.677,567.722 702.223,569.218C699.745,570.728 697.406,572.479 695.204,574.463C693.049,576.405 691.135,578.502 689.469,580.761L689.454,580.776C687.776,583.048 686.333,585.495 685.125,588.123L685.11,588.154C682.685,593.347 681.472,599.002 681.472,605.089C681.472,609.173 681.996,613.042 683.045,616.699C684.096,620.363 685.662,623.822 687.742,627.075L687.749,627.071C689.848,630.334 692.31,633.25 695.132,635.821C697.954,638.392 701.156,640.63 704.737,642.535L704.734,642.541C708.319,644.427 712.016,645.85 715.828,646.802ZM702.907,615.14C701.545,612.002 700.863,608.649 700.863,605.089C700.863,602.749 701.177,600.482 701.804,598.289C702.426,596.108 703.363,594.011 704.609,592.003L704.624,592.003C705.863,590.024 707.3,588.259 708.928,586.715C710.584,585.145 712.434,583.784 714.471,582.64C718.597,580.321 722.967,579.161 727.578,579.161C729.904,579.161 732.182,579.455 734.41,580.042C736.607,580.621 738.727,581.488 740.771,582.645L740.773,582.64C742.814,583.786 744.656,585.147 746.306,586.716C747.959,588.288 749.395,590.042 750.62,591.972L750.635,592.003C751.882,594.011 752.818,596.108 753.441,598.289C754.067,600.482 754.381,602.749 754.381,605.089C754.381,608.649 753.7,612.002 752.337,615.14C750.986,618.252 748.989,621.081 746.35,623.619L746.35,623.618C743.738,626.161 740.865,628.074 737.729,629.36C734.556,630.66 731.175,631.309 727.578,631.309C724.005,631.309 720.634,630.659 717.472,629.355C714.352,628.068 711.49,626.157 708.894,623.618L708.894,623.619C706.254,621.081 704.258,618.252 702.907,615.14" style="fill:white;fill-rule:nonzero;"/>
            </g>
        </g>
    </g>
</svg>
