<svg xmlns="http://www.w3.org/2000/svg" width="175.324" height="20.514" viewBox="0 0 175.324 20.514"><path d="M232.567.1A101.439,101.439,0,0,0,215.3,1.576l.787,4.181A97.309,97.309,0,0,1,230.205,4.38V20.22h4.624V4.38A97.31,97.31,0,0,1,249,5.757l.787-4.181A101.3,101.3,0,0,0,232.567.1" transform="translate(-109.387 -0.051)" fill="#fff"/><rect width="4.624" height="19.382" transform="translate(41.371 0.787)" fill="#fff"/><path d="M0,1.676.787,5.857A97.362,97.362,0,0,1,14.955,4.431v15.84h4.624V4.48A97.31,97.31,0,0,1,33.746,5.857l.787-4.181A101.748,101.748,0,0,0,0,1.676" transform="translate(0 -0.102)" fill="#fff"/><rect width="4.624" height="19.382" transform="translate(94.451 0.787)" fill="#fff"/><path d="M125.426,14.61A97.448,97.448,0,0,1,112.291,0L108.7,2.607a105.312,105.312,0,0,0,16.726,17.906l.049-.049A102.919,102.919,0,0,0,142.151,2.607L138.56,0a97.449,97.449,0,0,1-13.135,14.61" transform="translate(-55.227)" fill="#fff"/><g transform="translate(144.185 7.625)"><path d="M299.593,28.652H293.1V16.6h.64V28.062h5.854Z" transform="translate(-293.1 -16.059)" fill="#fff"/><path d="M314.6,25.906v4.969c.049.394.492.64,1.279.738l-.049.541a2.01,2.01,0,0,1-1.771-.738,8.912,8.912,0,0,1-3.493.738,2.152,2.152,0,0,1-1.673-.64,2.614,2.614,0,0,1-.59-1.82,2.614,2.614,0,0,1,.59-1.82,2.97,2.97,0,0,1,1.82-.738l3.3-.344v-.885a2.215,2.215,0,0,0-.492-1.623,1.8,1.8,0,0,0-1.427-.492,23.575,23.575,0,0,0-2.706.246l-.541.049-.049-.59a22.523,22.523,0,0,1,3.3-.3C313.76,23.249,314.6,24.135,314.6,25.906Zm-5.165,2.361a1.923,1.923,0,0,0-.394,1.377,2.152,2.152,0,0,0,.443,1.427,1.458,1.458,0,0,0,1.181.492,6.625,6.625,0,0,0,1.623-.2c.59-.148.984-.246,1.328-.344l.492-.2V27.283l-3.2.344C310.169,27.775,309.677,27.923,309.431,28.267Z" transform="translate(-300.823 -19.412)" fill="#fff"/><path d="M327.441,20.026a7.1,7.1,0,0,1,3.05-.689,2.4,2.4,0,0,1,2.214.984,7.2,7.2,0,0,1,.64,3.444,5.639,5.639,0,0,1-.787,3.444q-.812,1.033-3.1,1.033c-.787,0-1.525-.049-2.165-.1l-.393-.049V15.5h.59v4.526Zm0,7.576c.885.049,1.623.1,2.164.1a4.638,4.638,0,0,0,1.476-.246,1.6,1.6,0,0,0,.984-.787,2.647,2.647,0,0,0,.443-1.23,9.585,9.585,0,0,0,.1-1.82,6.837,6.837,0,0,0-.443-2.9,1.864,1.864,0,0,0-1.82-.885,4.976,4.976,0,0,0-1.427.2c-.492.148-.885.246-1.131.344l-.394.148V27.6Z" transform="translate(-310.273 -15.5)" fill="#fff"/><path d="M346.65,23.689c-1.525,0-2.312.59-2.312,1.722a1.193,1.193,0,0,0,.492,1.131,5.247,5.247,0,0,0,2.115.59,6.831,6.831,0,0,1,2.312.689,1.942,1.942,0,0,1,.639,1.722,2.19,2.19,0,0,1-.836,1.869,4.219,4.219,0,0,1-2.46.59,16.114,16.114,0,0,1-2.361-.2l-.492-.049.049-.59a19.672,19.672,0,0,0,2.952.3,3.147,3.147,0,0,0,1.771-.443,1.656,1.656,0,0,0,.689-1.476,1.576,1.576,0,0,0-.541-1.377,6.616,6.616,0,0,0-2.164-.59,5.577,5.577,0,0,1-2.263-.689,1.539,1.539,0,0,1-.639-1.427,2.258,2.258,0,0,1,.443-1.525,2.664,2.664,0,0,1,1.082-.738A3.668,3.668,0,0,1,346.4,23a14.406,14.406,0,0,1,2.607.2l.443.049-.049.59C348.421,23.787,347.437,23.689,346.65,23.689Z" transform="translate(-318.757 -19.311)" fill="#fff"/></g></svg>